<svg xmlns="http://www.w3.org/2000/svg" xmlns:xlink="http://www.w3.org/1999/xlink" version="1.1" width="256" height="256" viewBox="0 0 256 256" xml:space="preserve">

<defs>
</defs>
<g style="stroke: none; stroke-width: 0; stroke-dasharray: none; stroke-linecap: butt; stroke-linejoin: miter; stroke-miterlimit: 10; fill: none; fill-rule: nonzero; opacity: 1;" transform="translate(1.4065934065934016 1.4065934065934016) scale(2.81 2.81)" >
	<path d="M 64.967 0 H 25.033 c -3.363 0 -6.099 2.736 -6.099 6.098 v 77.803 c 0 3.362 2.736 6.099 6.099 6.099 h 39.934 c 3.363 0 6.099 -2.736 6.099 -6.099 V 6.098 C 71.065 2.736 68.33 0 64.967 0 z M 20.935 12.417 h 48.131 v 59.67 H 20.935 V 12.417 z M 25.033 2 h 39.934 c 2.26 0 4.099 1.838 4.099 4.098 v 4.319 H 20.935 V 6.098 C 20.935 3.838 22.773 2 25.033 2 z M 64.967 88 H 25.033 c -2.26 0 -4.099 -1.839 -4.099 -4.099 v -9.814 h 48.131 v 9.814 C 69.065 86.161 67.227 88 64.967 88 z" style="stroke: none; stroke-width: 3; stroke-dasharray: none; stroke-linecap: butt; stroke-linejoin: miter; stroke-miterlimit: 10; fill: #fff; fill-rule: nonzero; opacity: 1;" transform=" matrix(1 0 0 1 0 0) " stroke-linecap="round" />
	<path d="M 45 85.543 c -2.481 0 -4.5 -2.019 -4.5 -4.5 s 2.019 -4.5 4.5 -4.5 s 4.5 2.019 4.5 4.5 S 47.481 85.543 45 85.543 z M 45 78.543 c -1.378 0 -2.5 1.121 -2.5 2.5 s 1.122 2.5 2.5 2.5 c 1.379 0 2.5 -1.121 2.5 -2.5 S 46.379 78.543 45 78.543 z" style="stroke: none; stroke-width: 3; stroke-dasharray: none; stroke-linecap: butt; stroke-linejoin: miter; stroke-miterlimit: 10; fill: #fff; fill-rule: nonzero; opacity: 1;" transform=" matrix(1 0 0 1 0 0) " stroke-linecap="round" />
	<path d="M 50.527 7.254 H 39.473 c -0.552 0 -1 -0.448 -1 -1 s 0.448 -1 1 -1 h 11.055 c 0.553 0 1 0.448 1 1 S 51.08 7.254 50.527 7.254 z" style="stroke: none; stroke-width: 3; stroke-dasharray: none; stroke-linecap: butt; stroke-linejoin: miter; stroke-miterlimit: 10; fill: #fff; fill-rule: nonzero; opacity: 1;" transform=" matrix(1 0 0 1 0 0) " stroke-linecap="round" />
</g>
</svg>